<svg width="24" height="24" viewBox="0 0 24 24" fill="none" xmlns="http://www.w3.org/2000/svg">
<g clip-path="url(#clip0_1401_128)">
<path fill-rule="evenodd" clip-rule="evenodd" d="M17.4451 22.997C15.9308 22.9413 11.6394 22.3482 7.14502 17.8549C2.6517 13.3605 2.05967 9.07012 2.00288 7.55482C1.91876 5.24559 3.68749 3.00261 5.73067 2.12665C5.97671 2.02041 6.24615 1.97996 6.51254 2.00927C6.77893 2.03859 7.03313 2.13665 7.25018 2.29385C8.93268 3.51997 10.0936 5.37493 11.0905 6.83345C11.3098 7.15389 11.4036 7.54383 11.354 7.92896C11.3043 8.3141 11.1147 8.66751 10.8213 8.92185L8.76969 10.4456C8.67057 10.5171 8.6008 10.6223 8.57334 10.7414C8.54587 10.8605 8.56258 10.9856 8.62037 11.0933C9.08516 11.9377 9.91168 13.1954 10.8581 14.1418C11.8055 15.0882 13.1221 15.9694 14.0254 16.4868C14.1387 16.5504 14.272 16.5681 14.3979 16.5365C14.5239 16.5048 14.6329 16.426 14.7026 16.3164L16.0381 14.2838C16.2836 13.9576 16.6458 13.7391 17.0488 13.6741C17.4518 13.609 17.8644 13.7024 18.2001 13.9346C19.6796 14.9589 21.4063 16.0998 22.6703 17.7182C22.8403 17.9368 22.9484 18.1971 22.9833 18.4718C23.0183 18.7465 22.9788 19.0255 22.869 19.2797C21.9889 21.3334 19.7617 23.0822 17.4451 22.997Z" fill="#F3FF69"/>
</g>
<defs>
<clipPath id="clip0_1401_128">
<rect width="24" height="24" fill="white"/>
</clipPath>
</defs>
</svg>
