<svg width="24" height="24" viewBox="0 0 24 24" fill="none" xmlns="http://www.w3.org/2000/svg">
<path d="M2 8.83933L12.1697 14.0725C12.2717 14.125 12.385 14.1524 12.5 14.1524C12.615 14.1524 12.7283 14.125 12.8303 14.0725L23 8.84028V17.9306C23.0001 18.7146 22.6969 19.4689 22.1527 20.0388C21.6085 20.6087 20.8645 20.9509 20.0734 20.9953L19.8977 21H5.10227C4.30987 21.0001 3.54748 20.7001 2.97151 20.1616C2.39553 19.6232 2.04964 18.8871 2.00477 18.1043L2 17.9306V8.83933ZM5.10227 4H19.8977C20.6901 3.99995 21.4525 4.29991 22.0285 4.83836C22.6045 5.3768 22.9504 6.11291 22.9952 6.89567L23 7.06944V7.24322L12.5 12.6454L2 7.24322V7.06944C1.99995 6.28543 2.30312 5.53111 2.84732 4.96123C3.39153 4.39135 4.1355 4.04911 4.92664 4.00472L5.10227 4Z" fill="#F3FF69"/>
</svg>
